<svg width="23" height="36" viewBox="0 0 23 36" fill="none" xmlns="http://www.w3.org/2000/svg">
<path d="M7.44089 34.3251H15.5589C20.1825 34.3251 22.4679 31.9514 22.428 27.204C22.3748 21.7823 22.3483 17.8441 22.2154 14.8905C21.8301 6.20495 19.4253 3.65593 11.5065 3.65593C3.58782 3.65593 1.16969 6.20495 0.784384 14.8905C0.65152 17.8441 0.624947 21.7823 0.571802 27.204C0.531942 31.9514 2.81721 34.3251 7.44089 34.3251ZM7.05558 28.9708C5.91295 28.9708 5.18219 28.2155 5.18219 27.0827V20.1234C5.18219 18.977 5.91295 18.2217 7.05558 18.2217H15.9575C17.0869 18.2217 17.8176 18.977 17.8176 20.1234V27.0827C17.8176 28.2155 17.0869 28.9708 15.9575 28.9708H7.05558ZM5.18219 23.4143H17.8176V21.8092H5.18219V23.4143ZM11.5065 0.5C8.95553 0.5 7.16187 2.2533 7.16187 4.64048H9.03526C9.03526 3.33225 10.045 2.40165 11.5065 2.40165C12.9547 2.40165 13.9778 3.33225 13.9778 4.64048H15.8512C15.8512 2.2533 14.0443 0.5 11.5065 0.5Z" fill="#FF9500"/>
</svg>
