<svg width="25" height="32" viewBox="0 0 25 32" fill="none" xmlns="http://www.w3.org/2000/svg">
<path d="M4.72552 31.209H23.1532C23.7794 31.209 24.2916 30.7109 24.2916 30.0706C24.2916 29.5725 23.9501 29.1314 23.4948 28.9748C21.7018 28.2634 21.3318 25.9439 23.0964 24.1652C23.6371 23.6245 24.2916 22.9272 24.2916 21.5042V5.18248C24.2916 2.22266 22.826 0.714287 19.8803 0.714287H4.7682C1.82261 0.714287 0.356934 2.20843 0.356934 5.18248V26.812C0.356934 29.7432 1.83684 31.209 4.72552 31.209ZM4.85358 28.918C3.41636 28.918 2.64795 28.1496 2.64795 26.7978C2.64795 25.517 3.55867 24.6917 4.98165 24.6917H19.5815C19.7666 24.6917 19.9373 24.6775 20.0796 24.649C19.4108 26.1289 19.5247 27.6943 20.2787 28.918H4.85358ZM4.42669 22.5287C3.98556 22.5287 3.61558 22.1588 3.61558 21.7035V3.73103C3.61558 3.27568 3.98556 2.91993 4.42669 2.91993C4.86781 2.91993 5.25202 3.27568 5.25202 3.73103V21.7035C5.25202 22.1588 4.86781 22.5287 4.42669 22.5287Z" fill="#FF9500"/>
</svg>
