<svg width="35" height="35" viewBox="0 0 35 35" fill="none" xmlns="http://www.w3.org/2000/svg">
<path d="M0.5 18.0892C0.5 20.5291 2.19061 21.8687 4.09254 21.8687C4.89088 21.8687 5.48964 21.6414 6.2058 21.1869C6.875 20.7683 7.35635 21.0194 7.35635 21.6056V26.0308C7.35635 28.387 8.57735 29.595 10.9136 29.595H14.0483C14.6118 29.595 14.8584 29.1165 14.4593 28.4349C14.0014 27.7052 13.7783 27.0953 13.7783 26.282C13.7783 24.3445 15.1049 22.6222 17.5 22.6222C19.8951 22.6222 21.21 24.3445 21.21 26.282C21.21 27.0953 20.9869 27.7052 20.5407 28.4349C20.1416 29.1165 20.3763 29.595 20.9517 29.595H24.0864C26.4227 29.595 27.6437 28.387 27.6437 26.0308V21.6056C27.6437 21.0194 28.125 20.7683 28.7825 21.1869C29.5103 21.6414 30.1091 21.8687 30.8957 21.8687C32.8094 21.8687 34.5 20.5291 34.5 18.0892C34.5 15.6373 32.8094 14.2978 30.8957 14.2978C30.1091 14.2978 29.5103 14.525 28.7825 14.9795C28.125 15.3981 27.6437 15.147 27.6437 14.5609V10.1356C27.6437 7.79139 26.4227 6.57144 24.0864 6.57144H20.9517C20.3763 6.57144 20.1416 7.06181 20.5407 7.74355C20.9869 8.47313 21.21 9.0831 21.21 9.8964C21.21 11.834 19.8951 13.5563 17.5 13.5563C15.1049 13.5563 13.7783 11.834 13.7783 9.8964C13.7783 9.0831 14.0014 8.47313 14.4593 7.74355C14.8584 7.06181 14.6118 6.57144 14.0483 6.57144H10.9136C8.57735 6.57144 7.35635 7.79139 7.35635 10.1356V14.5609C7.35635 15.147 6.875 15.3981 6.2058 14.9795C5.48964 14.525 4.89088 14.2978 4.09254 14.2978C2.19061 14.2978 0.5 15.6373 0.5 18.0892Z" fill="#FF9500"/>
</svg>
