<svg width="35" height="35" viewBox="0 0 35 35" fill="none" xmlns="http://www.w3.org/2000/svg">
<path d="M28.2626 30.5014C28.9029 30.5014 29.4294 29.9892 29.4294 29.363C29.4294 28.7227 28.9029 28.1962 28.2626 28.1962H26.5265V18.7618C26.5265 13.5678 22.5279 9.55497 17.334 9.55497C12.1543 9.55497 8.15569 13.5678 8.15569 18.7618V28.1962H6.39118C5.76507 28.1962 5.26702 28.7227 5.26702 29.363C5.26702 29.9892 5.76507 30.5014 6.39118 30.5014H28.2626ZM18.5293 18.8044V28.1962H16.1671V18.8044C16.1671 18.1499 16.6794 17.609 17.334 17.609C17.9885 17.609 18.5293 18.1499 18.5293 18.8044ZM4.44168 19.7863C5.1105 19.7863 5.69391 19.2313 5.69391 18.5767C5.69391 17.8937 5.1105 17.3387 4.44168 17.3387H1.70954C1.05497 17.3387 0.5 17.9079 0.5 18.5767C0.5 19.2171 1.05497 19.7863 1.70954 19.7863H4.44168ZM7.35882 10.3234C7.82841 10.793 8.61105 10.8072 9.08064 10.3234C9.56445 9.83958 9.55022 9.07115 9.08064 8.60158L7.1596 6.6663C6.70425 6.18249 5.90736 6.18249 5.42355 6.6663C4.95396 7.15012 4.95396 7.90431 5.42355 8.38812L7.35882 10.3234ZM16.1102 5.68444C16.1102 6.35324 16.6652 6.92244 17.334 6.92244C18.017 6.92244 18.572 6.35324 18.572 5.68444V2.9523C18.572 2.28349 18.0028 1.71429 17.334 1.71429C16.6652 1.71429 16.1102 2.28349 16.1102 2.9523V5.68444ZM25.5731 8.60158C25.1035 9.07115 25.0893 9.83958 25.5731 10.3234C26.0712 10.8072 26.8253 10.793 27.2949 10.3234L29.2444 8.38812C29.714 7.90431 29.714 7.15012 29.2444 6.6663C28.7463 6.18249 27.9922 6.18249 27.5226 6.6663L25.5731 8.60158ZM32.9443 19.7863C33.613 19.7863 34.1822 19.2171 34.1822 18.5767C34.1822 17.9079 33.613 17.3387 32.9443 17.3387H30.2121C29.5575 17.3387 28.9882 17.8937 28.9882 18.5767C28.9882 19.2313 29.5575 19.7863 30.2121 19.7863H32.9443Z" fill="#FF9500"/>
</svg>
